<mxfile host="app.diagrams.net" modified="2022-02-18T10:13:24.453Z" agent="5.0 (Windows NT 10.0; Win64; x64) AppleWebKit/537.36 (KHTML, like Gecko) Chrome/97.0.4692.99 Safari/537.36" etag="xlA2nBuO8URwABNhgvv6" version="16.6.1" type="github">
  <diagram id="0sxe4gGRPeDVwjR-xK8e" name="Page-1">
    <mxGraphModel dx="1083" dy="582" grid="1" gridSize="10" guides="1" tooltips="1" connect="1" arrows="1" fold="1" page="1" pageScale="1" pageWidth="827" pageHeight="1169" math="0" shadow="0">
      <root>
        <mxCell id="0" />
        <mxCell id="1" parent="0" />
        <mxCell id="Rrd7tDClEeY-F5DaIt27-2" value="apiweb集群" style="rounded=0;whiteSpace=wrap;html=1;strokeColor=#36393d;fillColor=#cce5ff;" vertex="1" parent="1">
          <mxGeometry x="140" y="40" width="100" height="40" as="geometry" />
        </mxCell>
        <mxCell id="Rrd7tDClEeY-F5DaIt27-7" value="Redis" style="rounded=0;whiteSpace=wrap;html=1;strokeColor=default;" vertex="1" parent="1">
          <mxGeometry x="350" y="90" width="120" height="40" as="geometry" />
        </mxCell>
        <mxCell id="Rrd7tDClEeY-F5DaIt27-8" value="UBSQL" style="rounded=0;whiteSpace=wrap;html=1;strokeColor=default;" vertex="1" parent="1">
          <mxGeometry x="350" y="130" width="120" height="40" as="geometry" />
        </mxCell>
        <mxCell id="Rrd7tDClEeY-F5DaIt27-9" value="core" style="rounded=0;whiteSpace=wrap;html=1;strokeColor=default;" vertex="1" parent="1">
          <mxGeometry x="80" y="40" width="60" height="40" as="geometry" />
        </mxCell>
        <mxCell id="Rrd7tDClEeY-F5DaIt27-10" value="运营管理后台" style="rounded=0;whiteSpace=wrap;html=1;strokeColor=default;" vertex="1" parent="1">
          <mxGeometry x="580" y="150" width="120" height="40" as="geometry" />
        </mxCell>
        <mxCell id="Rrd7tDClEeY-F5DaIt27-11" value="定时任务Task" style="rounded=0;whiteSpace=wrap;html=1;" vertex="1" parent="1">
          <mxGeometry x="580" y="70" width="120" height="40" as="geometry" />
        </mxCell>
        <mxCell id="Rrd7tDClEeY-F5DaIt27-22" value="handleresult集群" style="rounded=0;whiteSpace=wrap;html=1;strokeColor=#36393d;fillColor=#cce5ff;" vertex="1" parent="1">
          <mxGeometry x="140" y="150" width="100" height="40" as="geometry" />
        </mxCell>
        <mxCell id="Rrd7tDClEeY-F5DaIt27-23" value="core" style="rounded=0;whiteSpace=wrap;html=1;strokeColor=default;" vertex="1" parent="1">
          <mxGeometry x="80" y="150" width="60" height="40" as="geometry" />
        </mxCell>
        <mxCell id="Rrd7tDClEeY-F5DaIt27-26" value="" style="endArrow=classic;html=1;rounded=0;exitX=0;exitY=0.5;exitDx=0;exitDy=0;entryX=1;entryY=0.5;entryDx=0;entryDy=0;" edge="1" parent="1" source="Rrd7tDClEeY-F5DaIt27-7" target="Rrd7tDClEeY-F5DaIt27-2">
          <mxGeometry width="50" height="50" relative="1" as="geometry">
            <mxPoint x="260" y="110" as="sourcePoint" />
            <mxPoint x="310" y="60" as="targetPoint" />
          </mxGeometry>
        </mxCell>
        <mxCell id="Rrd7tDClEeY-F5DaIt27-28" value="" style="endArrow=classic;startArrow=classic;html=1;rounded=0;entryX=0;entryY=0.5;entryDx=0;entryDy=0;exitX=1;exitY=0;exitDx=0;exitDy=0;" edge="1" parent="1" source="Rrd7tDClEeY-F5DaIt27-8" target="Rrd7tDClEeY-F5DaIt27-11">
          <mxGeometry width="50" height="50" relative="1" as="geometry">
            <mxPoint x="480" y="130" as="sourcePoint" />
            <mxPoint x="530" y="80" as="targetPoint" />
          </mxGeometry>
        </mxCell>
        <mxCell id="Rrd7tDClEeY-F5DaIt27-29" value="" style="endArrow=classic;startArrow=classic;html=1;rounded=0;entryX=0;entryY=0.5;entryDx=0;entryDy=0;exitX=1;exitY=0;exitDx=0;exitDy=0;" edge="1" parent="1" source="Rrd7tDClEeY-F5DaIt27-8" target="Rrd7tDClEeY-F5DaIt27-10">
          <mxGeometry width="50" height="50" relative="1" as="geometry">
            <mxPoint x="480" y="180" as="sourcePoint" />
            <mxPoint x="530" y="130" as="targetPoint" />
          </mxGeometry>
        </mxCell>
        <mxCell id="Rrd7tDClEeY-F5DaIt27-30" value="" style="endArrow=classic;startArrow=classic;html=1;rounded=0;entryX=0;entryY=0.25;entryDx=0;entryDy=0;exitX=1;exitY=0.5;exitDx=0;exitDy=0;entryPerimeter=0;" edge="1" parent="1" source="Rrd7tDClEeY-F5DaIt27-22" target="Rrd7tDClEeY-F5DaIt27-8">
          <mxGeometry width="50" height="50" relative="1" as="geometry">
            <mxPoint x="270" y="200" as="sourcePoint" />
            <mxPoint x="320" y="150" as="targetPoint" />
          </mxGeometry>
        </mxCell>
        <mxCell id="Rrd7tDClEeY-F5DaIt27-34" value="数据中心/四方业务监控" style="rounded=0;whiteSpace=wrap;html=1;strokeColor=default;" vertex="1" parent="1">
          <mxGeometry x="350" y="200" width="140" height="40" as="geometry" />
        </mxCell>
        <mxCell id="Rrd7tDClEeY-F5DaIt27-38" value="" style="endArrow=classic;html=1;rounded=0;exitX=1;exitY=0.75;exitDx=0;exitDy=0;entryX=0;entryY=0.25;entryDx=0;entryDy=0;" edge="1" parent="1" source="Rrd7tDClEeY-F5DaIt27-2" target="Rrd7tDClEeY-F5DaIt27-34">
          <mxGeometry width="50" height="50" relative="1" as="geometry">
            <mxPoint x="320" y="250" as="sourcePoint" />
            <mxPoint x="370" y="200" as="targetPoint" />
          </mxGeometry>
        </mxCell>
        <mxCell id="Rrd7tDClEeY-F5DaIt27-39" value="" style="endArrow=classic;html=1;rounded=0;entryX=1;entryY=0.5;entryDx=0;entryDy=0;exitX=0;exitY=1;exitDx=0;exitDy=0;" edge="1" parent="1" source="Rrd7tDClEeY-F5DaIt27-11" target="Rrd7tDClEeY-F5DaIt27-34">
          <mxGeometry width="50" height="50" relative="1" as="geometry">
            <mxPoint x="690" y="160" as="sourcePoint" />
            <mxPoint x="740" y="110" as="targetPoint" />
          </mxGeometry>
        </mxCell>
        <mxCell id="Rrd7tDClEeY-F5DaIt27-40" style="edgeStyle=orthogonalEdgeStyle;rounded=0;orthogonalLoop=1;jettySize=auto;html=1;exitX=0.5;exitY=1;exitDx=0;exitDy=0;" edge="1" parent="1" source="Rrd7tDClEeY-F5DaIt27-7" target="Rrd7tDClEeY-F5DaIt27-7">
          <mxGeometry relative="1" as="geometry" />
        </mxCell>
        <mxCell id="Rrd7tDClEeY-F5DaIt27-41" value="FTP" style="rounded=0;whiteSpace=wrap;html=1;strokeColor=default;" vertex="1" parent="1">
          <mxGeometry x="350" y="30" width="120" height="40" as="geometry" />
        </mxCell>
        <mxCell id="Rrd7tDClEeY-F5DaIt27-42" value="" style="endArrow=classic;html=1;rounded=0;exitX=1;exitY=0.75;exitDx=0;exitDy=0;entryX=0;entryY=0.5;entryDx=0;entryDy=0;" edge="1" parent="1" source="Rrd7tDClEeY-F5DaIt27-22" target="Rrd7tDClEeY-F5DaIt27-34">
          <mxGeometry width="50" height="50" relative="1" as="geometry">
            <mxPoint x="250" y="250" as="sourcePoint" />
            <mxPoint x="300" y="200" as="targetPoint" />
          </mxGeometry>
        </mxCell>
        <mxCell id="Rrd7tDClEeY-F5DaIt27-43" value="" style="endArrow=classic;html=1;rounded=0;exitX=1;exitY=0.5;exitDx=0;exitDy=0;entryX=0;entryY=0.25;entryDx=0;entryDy=0;" edge="1" parent="1" source="Rrd7tDClEeY-F5DaIt27-41" target="Rrd7tDClEeY-F5DaIt27-11">
          <mxGeometry width="50" height="50" relative="1" as="geometry">
            <mxPoint x="520" y="90" as="sourcePoint" />
            <mxPoint x="570" y="40" as="targetPoint" />
          </mxGeometry>
        </mxCell>
        <mxCell id="Rrd7tDClEeY-F5DaIt27-153" value="数仓" style="shape=umlLifeline;perimeter=lifelinePerimeter;whiteSpace=wrap;html=1;container=1;collapsible=0;recursiveResize=0;outlineConnect=0;strokeColor=default;" vertex="1" parent="1">
          <mxGeometry x="290" y="320" width="100" height="300" as="geometry" />
        </mxCell>
        <mxCell id="Rrd7tDClEeY-F5DaIt27-154" value="" style="html=1;points=[];perimeter=orthogonalPerimeter;fillColor=#808080;strokeColor=default;" vertex="1" parent="Rrd7tDClEeY-F5DaIt27-153">
          <mxGeometry x="45" y="90" width="10" height="120" as="geometry" />
        </mxCell>
        <mxCell id="Rrd7tDClEeY-F5DaIt27-155" value="task" style="shape=umlLifeline;perimeter=lifelinePerimeter;whiteSpace=wrap;html=1;container=1;collapsible=0;recursiveResize=0;outlineConnect=0;strokeColor=default;" vertex="1" parent="1">
          <mxGeometry x="100" y="320" width="135" height="300" as="geometry" />
        </mxCell>
        <mxCell id="Rrd7tDClEeY-F5DaIt27-156" value="" style="html=1;points=[];perimeter=orthogonalPerimeter;strokeColor=default;" vertex="1" parent="Rrd7tDClEeY-F5DaIt27-155">
          <mxGeometry x="45" y="90" width="15" height="40" as="geometry" />
        </mxCell>
        <mxCell id="Rrd7tDClEeY-F5DaIt27-172" value="" style="html=1;points=[];perimeter=orthogonalPerimeter;strokeColor=default;" vertex="1" parent="Rrd7tDClEeY-F5DaIt27-155">
          <mxGeometry x="45" y="160" width="10" height="40" as="geometry" />
        </mxCell>
        <mxCell id="Rrd7tDClEeY-F5DaIt27-173" value="self call" style="edgeStyle=orthogonalEdgeStyle;html=1;align=left;spacingLeft=2;endArrow=block;rounded=0;entryX=1;entryY=0;" edge="1" target="Rrd7tDClEeY-F5DaIt27-172" parent="Rrd7tDClEeY-F5DaIt27-155" source="Rrd7tDClEeY-F5DaIt27-156">
          <mxGeometry relative="1" as="geometry">
            <mxPoint x="50" y="140" as="sourcePoint" />
            <Array as="points">
              <mxPoint x="80" y="120" />
              <mxPoint x="80" y="160" />
            </Array>
          </mxGeometry>
        </mxCell>
        <mxCell id="Rrd7tDClEeY-F5DaIt27-175" value="生成交易报表" style="text;html=1;align=center;verticalAlign=middle;resizable=0;points=[];autosize=1;strokeColor=none;fillColor=none;" vertex="1" parent="Rrd7tDClEeY-F5DaIt27-155">
          <mxGeometry x="45" y="90" width="90" height="20" as="geometry" />
        </mxCell>
        <mxCell id="Rrd7tDClEeY-F5DaIt27-157" value="Lifeline2" style="shape=umlLifeline;perimeter=lifelinePerimeter;whiteSpace=wrap;html=1;container=1;collapsible=0;recursiveResize=0;outlineConnect=0;strokeColor=default;" vertex="1" parent="1">
          <mxGeometry x="570" y="310" width="100" height="300" as="geometry" />
        </mxCell>
        <mxCell id="Rrd7tDClEeY-F5DaIt27-158" value="" style="html=1;points=[];perimeter=orthogonalPerimeter;fillColor=#808080;strokeColor=default;" vertex="1" parent="Rrd7tDClEeY-F5DaIt27-157">
          <mxGeometry x="45" y="90" width="10" height="120" as="geometry" />
        </mxCell>
      </root>
    </mxGraphModel>
  </diagram>
</mxfile>
